<svg xmlns="http://www.w3.org/2000/svg" viewBox="0 2 40 64" width="40" height="64">
  <circle cx="20" cy="20" r="13" fill="none" stroke="#5b4c33" stroke-width="1.8"></circle>
  <path d="M20 33 V50" stroke="#5b4c33" stroke-width="1.8" fill="none"></path>
  <g fill="#ffffff"><circle cx="26.5" cy="8.74" r="2.6"></circle><circle cx="31.26" cy="13.5" r="2.6"></circle><circle cx="31.26" cy="26.5" r="2.6"></circle><circle cx="26.5" cy="31.26" r="2.6"></circle><circle cx="13.5" cy="31.26" r="2.6"></circle><circle cx="8.74" cy="26.5" r="2.6"></circle><circle cx="8.74" cy="13.5" r="2.6"></circle><circle cx="13.5" cy="8.74" r="2.6"></circle><circle cx="20" cy="41" r="1.9"></circle><circle cx="20" cy="46" r="1.9"></circle></g>
  <g fill="#c9a227"><circle cx="20" cy="7" r="3.6"></circle><circle cx="33" cy="20" r="3.6"></circle><circle cx="7" cy="20" r="3.6"></circle><circle cx="20" cy="33" r="4.2"></circle></g>
  <path d="M18.2 50 h3.6 v13.5 h-3.6 z M13.6 54 h12.8 v3.6 h-12.8 z" fill="#c9a227"></path>
</svg>